# This file uses centimeters as units for non-parametric coordinates.

mtllib ship_demo.mtl
g default
v -0.500000 -0.500000 0.500000
v 0.500000 -0.500000 0.500000
v -0.500000 0.500000 0.500000
v 0.500000 0.500000 0.500000
v -0.500000 0.500000 -0.500000
v 0.500000 0.500000 -0.500000
v -0.500000 -0.500000 -0.500000
v 0.500000 -0.500000 -0.500000
v 0.000000 0.000000 1.531068
vt 0.375000 0.000000
vt 0.625000 0.000000
vt 0.375000 0.250000
vt 0.625000 0.250000
vt 0.375000 0.500000
vt 0.625000 0.500000
vt 0.375000 0.750000
vt 0.625000 0.750000
vt 0.375000 1.000000
vt 0.625000 1.000000
vt 0.875000 0.000000
vt 0.875000 0.250000
vt 0.125000 0.000000
vt 0.125000 0.250000
vt 0.500000 0.125000
vn 0.583148 0.583148 0.565576
vn 0.000000 0.000000 1.000000
vn 0.583148 -0.583148 0.565576
vn 0.000000 1.000000 0.000000
vn 0.000000 1.000000 0.000000
vn 0.000000 1.000000 0.000000
vn 0.000000 1.000000 0.000000
vn 0.000000 0.000000 -1.000000
vn 0.000000 0.000000 -1.000000
vn 0.000000 0.000000 -1.000000
vn 0.000000 0.000000 -1.000000
vn 0.000000 -1.000000 0.000000
vn 0.000000 -1.000000 0.000000
vn 0.000000 -1.000000 0.000000
vn 0.000000 -1.000000 0.000000
vn 1.000000 0.000000 0.000000
vn 1.000000 0.000000 0.000000
vn 1.000000 0.000000 0.000000
vn 1.000000 0.000000 0.000000
vn -1.000000 0.000000 0.000000
vn -1.000000 0.000000 0.000000
vn -1.000000 0.000000 0.000000
vn -1.000000 0.000000 0.000000
vn -0.583148 -0.583148 0.565576
vn -0.583148 0.583148 0.565576
s 1
g pCube1
usemtl initialShadingGroup
f 4/4/1 9/15/2 2/2/3
s 2
f 3/3/4 4/4/5 5/5/6
f 5/5/6 4/4/5 6/6/7
s 3
f 5/5/8 6/6/9 7/7/10
f 7/7/10 6/6/9 8/8/11
s 4
f 7/7/12 8/8/13 1/9/14
f 1/9/14 8/8/13 2/10/15
s 5
f 2/2/16 8/11/17 4/4/18
f 4/4/18 8/11/17 6/12/19
s 6
f 7/13/20 1/1/21 5/14/22
f 5/14/22 1/1/21 3/3/23
s 1
f 1/1/24 2/2/3 9/15/2
f 3/3/25 9/15/2 4/4/1
f 1/1/24 9/15/2 3/3/25
